# xmcd CD database file
#
# Track frame offsets:
#	150
#	16294
#	31761
#	44481
#	60360
#	71364
#	87829
#	102232
#	116185
#	129318
#	158325
#	173267
#	186886
#	199086
#	211694
#	222516
#	236970
#	249196
#	263697
#	276046
#
# Disc length: 3847 seconds
#
# Revision: 1
# Processed by: cddbd v1.5.2PL0 Copyright (c) Steve Scherf et al.
# Submitted via: CDex 1.70beta2
#
DISCID=060f0514
DTITLE=Various Artist - Best Swing Jazz 100 (Disc2)
DYEAR=2009
DGENRE=Jazz
TTITLE0=In The Mood
TTITLE1=Moonlight Serenade
TTITLE2=String Of Pearls
TTITLE3=Tuxedo Junction
TTITLE4=Little Brown Jug
TTITLE5=I’m Gettin’Sentimental Over You
TTITLE6=Boogie Woogie
TTITLE7=Song Of India
TTITLE8=Smoke Rings
TTITLE9=No Name Jive
TTITLE10=Begin The Beguine
TTITLE11=Nightmare
TTITLE12=Frenesi
TTITLE13=I’ve Got My Love To Keep Me Warm
TTITLE14=Bizet Has His Day
TTITLE15=Twilight Time
TTITLE16=Perfidia
TTITLE17=Harlem Nocturne
TTITLE18=The Continental
TTITLE19=Leap Frog
EXTD=YEAR: 2009
EXTT0=
EXTT1=
EXTT2=
EXTT3=
EXTT4=
EXTT5=
EXTT6=
EXTT7=
EXTT8=
EXTT9=
EXTT10=
EXTT11=
EXTT12=
EXTT13=
EXTT14=
EXTT15=
EXTT16=
EXTT17=
EXTT18=
EXTT19=
PLAYORDER=
